<svg xmlns="http://www.w3.org/2000/svg" viewBox="0 0 100 100" height="256" width="256"><rect fill="#1e82be" rx="0" height="100" width="100" /><path fill="#fff" d="M 63.737714,34.155382 Q 63.258093,29.6675 59.695195,27.16662 q -3.52864,-2.500881 -9.181315,-2.500881 -3.974002,0 -6.817468,1.199053 -2.843467,1.199052 -4.350847,3.25457 -1.50738,2.055518 -1.541639,4.693433 0,2.192553 0.9935,3.802709 1.02776,1.610156 2.77495,2.740691 1.74719,1.096276 3.871226,1.849966 2.124035,0.75369 4.28233,1.26757 l 6.577658,1.644414 q 3.974002,0.924984 7.639676,2.500881 3.699932,1.575897 6.611917,3.974002 2.946242,2.398104 4.659174,5.789709 1.712932,3.391605 1.712932,7.948004 0,6.166555 -3.151795,10.859988 -3.151794,4.659174 -9.112797,7.297089 -5.926744,2.603657 -14.354369,2.603657 -8.187814,0 -14.217334,-2.535139 -5.995261,-2.535139 -9.386866,-7.399866 -3.357347,-4.864726 -3.631416,-11.853488 h 12.504403 q 0.274069,3.665674 2.26107,6.098037 1.987001,2.432363 5.173054,3.631416 3.220312,1.199052 7.194313,1.199052 4.145295,0 7.262831,-1.233311 3.151795,-1.267569 4.933244,-3.494381 1.781449,-2.26107 1.815708,-5.27583 -0.03426,-2.740691 -1.610156,-4.52214 -1.575897,-1.815708 -4.419364,-3.01476 -2.809208,-1.233311 -6.577658,-2.192553 L 43.627894,53.442994 Q 34.960459,51.216183 29.92444,46.694043 24.922679,42.137644 24.922679,34.600744 q 0,-6.200813 3.357346,-10.859988 3.391605,-4.659174 9.215573,-7.228572 5.823968,-2.603656 13.189575,-2.603656 7.468383,0 13.0868,2.603656 5.652675,2.569398 8.872986,7.160055 3.220312,4.556399 3.323088,10.483143 z" /></svg>
