<svg version="1.1" id="svg" viewBox="0 0 659 409" xmlns="http://www.w3.org/2000/svg">
  <defs>
    <clipPath id="ak">
      <path d="m291 81h0.5v15h-0.5z"/>
    </clipPath>
    <clipPath id="o">
      <path d="m66 350h25v12h-25z"/>
    </clipPath>
    <clipPath id="p">
      <path d="m70 350h18c2.1 0 3.8 1.7 3.8 3.8v4.4c0 2.1-1.7 3.8-3.8 3.8h-18c-2.1 0-3.8-1.7-3.8-3.8v-4.4c0-2.1 1.7-3.8 3.8-3.8z"/>
    </clipPath>
    <clipPath id="q">
      <path d="m66 349h26v13h-26z"/>
    </clipPath>
    <clipPath id="r">
      <path d="m94 350h40v12h-40z"/>
    </clipPath>
    <clipPath id="s">
      <path d="m98 350h32c2.1 0 3.8 1.7 3.8 3.8v4.4c0 2.1-1.7 3.8-3.8 3.8h-32c-2.1 0-3.8-1.7-3.8-3.8v-4.4c0-2.1 1.7-3.8 3.8-3.8z"/>
    </clipPath>
    <clipPath id="t">
      <path d="m137 350h27v12h-27z"/>
    </clipPath>
    <clipPath id="u">
      <path d="m141 350h20c2.1 0 3.8 1.7 3.8 3.8v4.4c0 2.1-1.7 3.8-3.8 3.8h-20c-2.1 0-3.8-1.7-3.8-3.8v-4.4c0-2.1 1.7-3.8 3.8-3.8z"/>
    </clipPath>
    <clipPath id="v">
      <path d="m167 350h47v12h-47z"/>
    </clipPath>
    <clipPath id="w">
      <path d="m171 350h40c2.1 0 3.8 1.7 3.8 3.8v4.4c0 2.1-1.7 3.8-3.8 3.8h-40c-2.1 0-3.8-1.7-3.8-3.8v-4.4c0-2.1 1.7-3.8 3.8-3.8z"/>
    </clipPath>
    <clipPath id="x">
      <path d="m66 366h62v12h-62z"/>
    </clipPath>
    <clipPath id="y">
      <path d="m70 366h54c2.1 0 3.8 1.7 3.8 3.8v4.4c0 2.1-1.7 3.8-3.8 3.8h-54c-2.1 0-3.8-1.7-3.8-3.8v-4.4c0-2.1 1.7-3.8 3.8-3.8z"/>
    </clipPath>
    <clipPath id="ad">
      <path d="m66 365h62v13h-62z"/>
    </clipPath>
    <clipPath id="aj">
      <path d="m131 366h57v12h-57z"/>
    </clipPath>
    <clipPath id="al">
      <path d="m134 366h49c2.1 0 3.8 1.7 3.8 3.8v4.4c0 2.1-1.7 3.8-3.8 3.8h-49c-2.1 0-3.8-1.7-3.8-3.8v-4.4c0-2.1 1.7-3.8 3.8-3.8z"/>
    </clipPath>
    <clipPath id="z">
      <path d="m130 365h58v13h-58z"/>
    </clipPath>
    <clipPath id="aa">
      <path d="m322 280h69v9h-69z"/>
    </clipPath>
    <clipPath id="ab">
      <path d="m322 366h34v12h-34z"/>
    </clipPath>
    <clipPath id="ac">
      <path d="m325 366h26c2.1 0 3.8 1.7 3.8 3.8v4.4c0 2.1-1.7 3.8-3.8 3.8h-26c-2.1 0-3.8-1.7-3.8-3.8v-4.4c0-2.1 1.7-3.8 3.8-3.8z"/>
    </clipPath>
    <clipPath id="ae">
      <path d="m322 365h34v13h-34z"/>
    </clipPath>
    <clipPath id="af">
      <path d="m358 366h77v12h-77z"/>
    </clipPath>
    <clipPath id="ah">
      <path d="m362 366h69c2.1 0 3.8 1.7 3.8 3.8v4.4c0 2.1-1.7 3.8-3.8 3.8h-69c-2.1 0-3.8-1.7-3.8-3.8v-4.4c0-2.1 1.7-3.8 3.8-3.8z"/>
    </clipPath>
    <clipPath id="ai">
      <path d="m358 365h77v13h-77z"/>
    </clipPath>
  </defs>
  <g transform="matrix(1.3 0 0 1.3 -57 -170)">
    <g transform="matrix(.99 0 0 .82 .46 74)">
      <path d="m44 70h512v337h-512z" fill="#fff"/>
    </g>
    <g clip-path="url(#ak)">
      <path d="m294 79h142c1.2 0 2.2 1 2.2 2.2v15c0 1.2-1 2.2-2.2 2.2h-142c-1.2 0-2.2-1-2.2-2.2v-15c0-1.2 1-2.2 2.2-2.2zm142 0.5h-142c-0.96 0-1.8 0.78-1.8 1.8v15c0 0.96 0.78 1.8 1.8 1.8h142c0.96 0 1.8-0.79 1.8-1.8v-15c0-0.96-0.78-1.8-1.8-1.8z" fill="#808080"/>
    </g>
    <g font-family="Inter">
      <text transform="translate(50,156)" font-size="21px" font-weight="bold"><tspan x="0 13.587 26.628 39.963001 45.674999 51.387001 63.714001 68.565002 80.745003 94.038002 107.331 115.374 127.911 141.20399 153.384 161.532 167.244 180.117 193.158" y="0">Public aggregations</tspan></text>
      <g font-size="10px">
        <text transform="translate(50,179)"><tspan x="0 7.098 13.4925 19.886999 23.6145 29.7255 36.119999 42.031502 45.842999 48.331501 54.5895 60.731998 66.8535 70.4655 76.376999 80.1045 86.876999 90.488998 96.348 102.606 105.0945 107.583 113.694 119.553 123.3645 125.853 132.11099 138.25349 144.3645 147.9765 154.2345 158.67599 162.28799 166.0995 172.011 178.4055 184.548 188.13901 193.767 200.02499 206.7765 210.3885 216.2475 222.159 228.9735 232.58549 238.0665 244.15649 250.6665 256.14749 262.0065 265.91251 268.401 274.91101 281.66251 285.26401 289.02301 295.28101 298.82999 302.43149 309.17249 315.36749 321.29999 327.7995 331.401 337.7955 344.0535 350.448 356.53799 359.02649 364.93799 368.69699 375.45901 379.07101 384.69901 390.957 397.047 401.625 405.2265 409.0065 412.73401 418.992 425.13449" y="0">Aggregations are collections of tags you can subscribe to. They populate your front</tspan></text>
        <text transform="translate(479,179)"><tspan x="0" y="0">‐</tspan></text>
        <text transform="translate(50,192)"><tspan x="0 6.3944998 12.306 18.7005 24.811501 28.4025 32.056499 38.220001 44.478001 51.282001 54.946499 60.8055 66.717003 73.573502 77.237999 83.097 86.824501 92.935501 98.847 102.606 109.4205 113.085 118.713 124.971 131.061 135.681 139.33501 145.40401 153.92999 160.797 164.4615 170.856 174.76199 177.2505 182.91 188.8215 192.58051 199.395 203.049 209.30701 213.927 217.58099 223.97549 230.06551 236.5755 239.064 241.55251 248.11501 251.7795 257.69101 264.08551 270.48001 274.20749 280.31851 286.71301 292.62451 296.436 298.9245 305.1825 311.32501 317.51999 321.17401 327.43201 332.052 335.71649 341.19751 347.28751 353.79749 359.2785 365.13751 369.04349 371.53201 378.04199 384.85651 388.5105 392.2695 399.24149 402.89551 409.29001 415.38 421.89001 424.37851 426.867" y="0">page. You can create your own private or public aggregations or subscribe to public</tspan> <tspan x="0 6.2579999 12.4005 18.511499 23.9925" y="12.599989">ones.</tspan></text>
      </g>
    </g>
    <path d="m52 226h236c1.2 0 2.2 1 2.2 2.2v176c0 1.2-1 2.2-2.2 2.2h-236c-1.2 0-2.2-1-2.2-2.2v-176c0-1.2 1-2.2 2.2-2.2zm236 0.5h-236c-0.97 0-1.8 0.79-1.8 1.8v176c0 0.96 0.78 1.8 1.8 1.8h236c0.97 0 1.8-0.78 1.8-1.8v-176c0-0.96-0.78-1.8-1.8-1.8z" fill="#808080"/>
    <path d="m66 248h28" fill="none" stroke="#551a8b" stroke-miterlimit="10" stroke-width=".5"/>
    <text transform="translate(66,248)" fill="#551a8b" font-family="'DejaVu Sans Mono'" font-size="12px" font-weight="bold"><tspan x="0 6.9531002 13.9062 20.859301" y="0">arts</tspan></text>
    <text transform="translate(97,248)" fill="#000000" font-family="Inter" font-size="10px"><tspan x="0 6.5415001 9.4919996 13.3035 19.215 25.609501" y="0">6 tags</tspan> <tspan x="-30.7505 -24.376999 -21.4265 -15.945499 -9.8554993 -3.3454995 2.1355004 7.9945006 11.9005 14.389001 20.899 27.01 30.916" y="20.47501">5 subscribers</tspan> <tspan x="-30.7505 -22.8545 -16.5965 -13.646 -7.1359997 -1.0249995 4.4560003 10.315001 14.221001 16.709501 23.104 26.915501 29.404001 35.661999" y="40.575012">No description</tspan></text>
    <g fill="#5f9ea0">
      <path d="m62 274h216v0.5h-216z"/>
      <path d="m278 274h0.5v71h-0.5z"/>
      <path d="m62 345h216v0.5h-216z"/>
      <path d="m62 274h0.5v71h-0.5z"/>
    </g>
    <g clip-path="url(#o)">
      <g clip-path="url(#p)">
        <path d="m66 350h25v12h-25z" fill="#00599a"/>
      </g>
    </g>
    <g clip-path="url(#q)">
      <path d="m70 350h18c2.1 0 3.8 1.7 3.8 3.8v4.4c0 2.1-1.7 3.8-3.8 3.8h-18c-2.1 0-3.8-1.7-3.8-3.8v-4.4c0-2.1 1.7-3.8 3.8-3.8zm18 0.5h-18c-1.8 0-3.2 1.5-3.2 3.2v4.4c0 1.8 1.5 3.2 3.2 3.2h18c1.8 0 3.2-1.5 3.2-3.2v-4.4c0-1.8-1.5-3.2-3.2-3.2z" fill-opacity=".37"/>
      <text transform="translate(70,358)" fill="#ffffff" font-family="Inter" font-size="8px"><tspan x="0 4.5040002 7.7519999 10.656 12.904" y="0">art 4</tspan></text>
    </g>
    <g clip-path="url(#r)">
      <g clip-path="url(#s)">
        <path d="m94 350h40v12h-40z" fill="#fff"/>
      </g>
    </g>
    <path d="m98 350h32c2.1 0 3.8 1.7 3.8 3.8v4.4c0 2.1-1.7 3.8-3.8 3.8h-32c-2.1 0-3.8-1.7-3.8-3.8v-4.4c0-2.1 1.7-3.8 3.8-3.8zm32 0.5h-32c-1.8 0-3.2 1.5-3.2 3.2v4.4c0 1.8 1.5 3.2 3.2 3.2h32c1.8 0 3.2-1.5 3.2-3.2v-4.4c0-1.8-1.5-3.2-3.2-3.2z" fill-opacity=".37"/>
    <text transform="translate(98,358)" fill="#000000" font-family="Inter" font-size="8px"><tspan x="0 4.96 9.6160002 13.792 15.688 20.559999 25.24 27.488001" y="0">design 0</tspan></text>
    <g clip-path="url(#t)">
      <g clip-path="url(#u)">
        <path d="m137 350h27v12h-27z" fill="#474747"/>
      </g>
    </g>
    <path d="m141 350h20c2.1 0 3.8 1.7 3.8 3.8v4.4c0 2.1-1.7 3.8-3.8 3.8h-20c-2.1 0-3.8-1.7-3.8-3.8v-4.4c0-2.1 1.7-3.8 3.8-3.8zm20 0.5h-20c-1.8 0-3.2 1.5-3.2 3.2v4.4c0 1.8 1.5 3.2 3.2 3.2h20c1.8 0 3.2-1.5 3.2-3.2v-4.4c0-1.8-1.5-3.2-3.2-3.2z" fill-opacity=".37"/>
    <text transform="translate(141,358)" fill="#ffffff" font-family="Inter" font-size="8px"><tspan x="0 2.8800001 4.776 6.6719999 13.624 15.872" y="0">film 1</tspan></text>
    <g clip-path="url(#v)">
      <g clip-path="url(#w)">
        <path d="m167 350h47v12h-47z" fill="#5fad47"/>
      </g>
    </g>
    <path d="m171 350h40c2.1 0 3.8 1.7 3.8 3.8v4.4c0 2.1-1.7 3.8-3.8 3.8h-40c-2.1 0-3.8-1.7-3.8-3.8v-4.4c0-2.1 1.7-3.8 3.8-3.8zm40 0.5h-40c-1.8 0-3.2 1.5-3.2 3.2v4.4c0 1.8 1.5 3.2 3.2 3.2h40c1.8 0 3.2-1.5 3.2-3.2v-4.4c0-1.8-1.5-3.2-3.2-3.2z" fill-opacity=".37"/>
    <text transform="translate(171,358)" fill="#000000" font-family="Inter" font-size="8px"><tspan x="0 1.896 3.7920001 6.6560001 11.312 14.288 18.792 21.695999 26.336 29.176001 33.832001 36.080002" y="0">literature 1</tspan></text>
    <g clip-path="url(#x)">
      <g clip-path="url(#y)">
        <path d="m66 366h62v12h-62z" fill="#fff"/>
      </g>
    </g>
    <g clip-path="url(#ad)">
      <path d="m70 366h54c2.1 0 3.8 1.7 3.8 3.8v4.4c0 2.1-1.7 3.8-3.8 3.8h-54c-2.1 0-3.8-1.7-3.8-3.8v-4.4c0-2.1 1.7-3.8 3.8-3.8zm54 0.5h-54c-1.8 0-3.2 1.5-3.2 3.2v4.4c0 1.8 1.5 3.2 3.2 3.2h54c1.8 0 3.2-1.5 3.2-3.2v-4.4c0-1.8-1.5-3.2-3.2-3.2z" fill-opacity=".37"/>
      <text transform="translate(70,375)" fill="#000000" font-family="Inter" font-size="8px"><tspan x="0 4.8720002 9.592 14.36 17.216 21.983999 26.856001 29.832001 34.335999 39.208 43.768002 48.216 50.464001" y="0">photography 1</tspan></text>
    </g>
    <g clip-path="url(#aj)">
      <g clip-path="url(#al)">
        <path d="m131 366h57v12h-57z" fill="#3d3d3d"/>
      </g>
    </g>
    <g clip-path="url(#z)">
      <path d="m134 366h49c2.1 0 3.8 1.7 3.8 3.8v4.4c0 2.1-1.7 3.8-3.8 3.8h-49c-2.1 0-3.8-1.7-3.8-3.8v-4.4c0-2.1 1.7-3.8 3.8-3.8zm49 0.5h-49c-1.8 0-3.2 1.5-3.2 3.2v4.4c0 1.8 1.5 3.2 3.2 3.2h49c1.8 0 3.2-1.5 3.2-3.2v-4.4c0-1.8-1.5-3.2-3.2-3.2z" fill-opacity=".37"/>
      <text transform="translate(134,375)" fill="#ffffff" font-family="Inter" font-size="8px"><tspan x="0 2.904 7.3520002 12.224 16.992001 21.864 24.84 29.344 34.216 38.768002 43.216 45.464001" y="0">typography 1</tspan></text>
    </g>
    <path d="m308 226h236c1.2 0 2.2 1 2.2 2.2v176c0 1.2-1 2.2-2.2 2.2h-236c-1.2 0-2.2-1-2.2-2.2v-176c0-1.2 1-2.2 2.2-2.2zm236 0.5h-236c-0.96 0-1.8 0.79-1.8 1.8v176c0 0.96 0.79 1.8 1.8 1.8h236c0.96 0 1.8-0.78 1.8-1.8v-176c0-0.96-0.78-1.8-1.8-1.8z" fill="#808080"/>
    <path d="m322 248h28" fill="none" stroke="#551a8b" stroke-miterlimit="10" stroke-width=".5"/>
    <text transform="translate(322,248)" fill="#551a8b" font-family="'DejaVu Sans Mono'" font-size="12px" font-weight="bold"><tspan x="0 6.9531002 13.9062 20.859301" y="0">meta</tspan></text>
    <text transform="translate(352,248)" fill="#000000" font-family="Inter" font-size="10px"><tspan x="0 6.3525 9.3030005 13.1145 19.025999 25.4205" y="0">2 tags</tspan> <tspan x="-30.750521 -24.28252 -21.33202 -15.851021 -9.7610207 -3.2510204 2.2299795 8.0889797 11.99498 14.483479 20.993479 27.104479 31.010479" y="20.47501">8 subscribers</tspan></text>
    <g clip-path="url(#aa)">
      <text transform="translate(322,288)" fill="#000000" font-family="Inter" font-size="10px"><tspan x="0 7.098 13.608 19.865999 25.955999 29.7675 32.717999 36.634499 42.829498 48.940498 51.890999 57.372002 59.8605 63.598499" y="0">About the site</tspan></text>
    </g>
    <g fill="#5f9ea0">
      <path d="m317 274h216v0.5h-216z"/>
      <path d="m534 274h0.5v71h-0.5z"/>
      <path d="m318 345h216v0.5h-216z"/>
      <path d="m317 274h0.5v71h-0.5z"/>
    </g>
    <g clip-path="url(#ab)">
      <g clip-path="url(#ac)">
        <path d="m322 366h34v12h-34z" fill="#1289ad"/>
      </g>
    </g>
    <g clip-path="url(#ae)">
      <path d="m325 366h26c2.1 0 3.8 1.7 3.8 3.8v4.4c0 2.1-1.7 3.8-3.8 3.8h-26c-2.1 0-3.8-1.7-3.8-3.8v-4.4c0-2.1 1.7-3.8 3.8-3.8zm26 0.5h-26c-1.8 0-3.2 1.5-3.2 3.2v4.4c0 1.8 1.5 3.2 3.2 3.2h26c1.8 0 3.2-1.5 3.2-3.2v-4.4c0-1.8-1.5-3.2-3.2-3.2z" fill-opacity=".37"/>
      <text transform="translate(325,375)" fill="#ffffff" font-family="Inter" font-size="8px"><tspan x="0 6.9520001 11.608 14.512 19.016001 21.264" y="0">meta 5</tspan></text>
    </g>
    <g clip-path="url(#af)">
      <g clip-path="url(#ah)">
        <path d="m358 366h77v12h-77z" fill="#acacac"/>
      </g>
    </g>
    <g clip-path="url(#ai)">
      <path d="m362 366h69c2.1 0 3.8 1.7 3.8 3.8v4.4c0 2.1-1.7 3.8-3.8 3.8h-69c-2.1 0-3.8-1.7-3.8-3.8v-4.4c0-2.1 1.7-3.8 3.8-3.8zm69 0.5h-69c-1.8 0-3.2 1.5-3.2 3.2v4.4c0 1.8 1.5 3.2 3.2 3.2h69c1.8 0 3.2-1.5 3.2-3.2v-4.4c0-1.8-1.5-3.2-3.2-3.2z" fill-opacity=".37"/>
      <text transform="translate(362,375)" fill="#000000" font-family="Inter" font-size="8px"><tspan x="0 4.1760001 6.072 10.536 12.784 17.743999 22.264 26.559999 31.216 33.112 37.880001 42.751999 49.703999 54.360001 59.040001 61.944 64.192001" y="0">sic development 3</tspan></text>
    </g>
    <text transform="matrix(1 0 0 .67 64 226)" fill="#1e82be" font-family="'DejaVu Sans Mono'" font-size="16px"><tspan x="0 9.4814997 18.962999 28.4445 37.925999 47.407501 56.889 66.370499 75.899246 85.380753 94.862251 104.34375 113.82525 123.30675 132.78825" y="0">▂▇▂▇▂▂▂▇▂▇▂▂▂▂▂</tspan></text>
    <g font-family="Inter" font-size="7.8px">
      <text transform="translate(120,399)"><tspan x="0 4.33845 7.0985751 11.623625 16.00095 18.784401 23.30945 28.12995 30.314726" y="0">created 1</tspan></text>
      <text transform="translate(154,399)"><tspan x="0" y="0"/></text>
      <text transform="translate(156,399)"><tspan x="0 6.165575 10.690625 15.215675 19.445274 21.6145 23.799274" y="0">week, 5</tspan></text>
      <text transform="translate(185,399)"><tspan x="0" y="0"/></text>
      <text transform="translate(187,399)"><tspan x="0 4.8204999 9.0267754 13.349675 17.408224 19.593 23.970325 28.705299" y="0">days ago</tspan></text>
    </g>
    <text transform="matrix(1 0 0 .67 319 226)" fill="#1e82be" font-family="'DejaVu Sans Mono'" font-size="16px"><tspan x="0 9.4814997 18.962999 28.4445 37.925999 47.407501 56.889 66.370499 75.899246 85.380753 94.862251 104.34375 113.82525 123.30675 132.78825" y="0">▂▂▇▂▂▂▂▂▂▇▂▂▂▂▂</tspan></text>
    <g font-family="Inter" font-size="7.8px">
      <text transform="translate(376,399)"><tspan x="0 4.33845 7.0985751 11.623625 16.00095 18.784401 23.30945 28.12995 30.314726" y="0">created 2</tspan></text>
      <text transform="translate(411,399)"><tspan x="0" y="0"/></text>
      <text transform="translate(413,399)"><tspan x="0 6.1578002 10.68285 15.2079 19.4375 23.49605 25.665276 27.85005" y="0">weeks, 1</tspan></text>
      <text transform="translate(444,399)"><tspan x="0" y="0"/></text>
      <text transform="translate(446,399)"><tspan x="0 4.8204999 9.0267754 13.349675 15.53445 19.911776 24.646749" y="0">day ago</tspan></text>
    </g>
  </g>
</svg>
