<svg id="svg" version="1.1" viewBox="0 0 673 1097" xmlns="http://www.w3.org/2000/svg">
  <defs>
    <clipPath id="ac">
      <path d="m207 53h10v10h-10z"/>
    </clipPath>
    <clipPath id="ab">
      <path d="m207 71h10v10h-10z"/>
    </clipPath>
    <clipPath id="aa">
      <path d="m207 89h10v10h-10z"/>
    </clipPath>
    <clipPath id="z">
      <path d="m207 107h10v10h-10z"/>
    </clipPath>
    <clipPath id="y">
      <path d="m207 125h10v10h-10z"/>
    </clipPath>
    <clipPath id="x">
      <path d="m207 143h10v10h-10z"/>
    </clipPath>
    <clipPath id="w">
      <path d="m207 167h10v10h-10z"/>
    </clipPath>
    <clipPath id="v">
      <path d="m207 197h10v10h-10z"/>
    </clipPath>
    <clipPath id="u">
      <path d="m207 221h10v10h-10z"/>
    </clipPath>
    <clipPath id="t">
      <path d="m50 264h433v17h-433z"/>
    </clipPath>
    <clipPath id="s">
      <path d="m50 264h433v17h-433z"/>
    </clipPath>
    <clipPath id="r">
      <path d="m136 379h10v10h-10z"/>
    </clipPath>
    <clipPath id="q">
      <path d="m136 397h10v10h-10z"/>
    </clipPath>
    <clipPath id="p">
      <path d="m136 439h89v17h-89z"/>
    </clipPath>
    <clipPath id="o">
      <path d="m136 488h10v10h-10z"/>
    </clipPath>
    <clipPath id="n">
      <path d="m136 506h10v10h-10z"/>
    </clipPath>
    <clipPath id="m">
      <path d="m136 530h10v10h-10z"/>
    </clipPath>
    <clipPath id="l">
      <path d="m136 554h10v10h-10z"/>
    </clipPath>
    <clipPath id="k">
      <path d="m136 572h10v10h-10z"/>
    </clipPath>
    <clipPath id="j">
      <path d="m136 590h10v10h-10z"/>
    </clipPath>
    <clipPath id="i">
      <path d="m136 608h10v10h-10z"/>
    </clipPath>
    <clipPath id="h">
      <path d="m50 626h433v17h-433z"/>
    </clipPath>
    <clipPath id="g">
      <path d="m146 728h10v10h-10z"/>
    </clipPath>
    <clipPath id="f">
      <path d="m146 758h49v17h-49z"/>
    </clipPath>
    <clipPath id="e">
      <path d="m146 758h49v17h-49z"/>
    </clipPath>
    <clipPath id="d">
      <path d="m50 799h433v17h-433z"/>
    </clipPath>
    <clipPath id="c">
      <path d="m50 799h433v17h-433z"/>
    </clipPath>
    <clipPath id="b">
      <path d="m0 0h596v842h-596z"/>
    </clipPath>
    <clipPath id="a">
      <path d="m211 442h9v9h-9z"/>
    </clipPath>
  </defs>
  <g transform="matrix(1.3 0 0 1.3 -45 0)">
    <g>
      <path d="m34 0h505v822h-505z" fill="#fff"/>
      <g fill="#333">
        <path d="m203 50h298v0.5h-298z"/>
        <path d="m501 50h0.44v16h-0.44z"/>
        <path d="m203 66h298v0.5h-298z"/>
        <path d="m203 50h0.44v16h-0.44z"/>
        <path d="m203 68h298v0.5h-298z"/>
        <path d="m501 68h0.44v16h-0.44z"/>
        <path d="m203 84h298v0.5h-298z"/>
        <path d="m203 68h0.44v16h-0.44z"/>
        <path d="m203 86h298v0.5h-298z"/>
        <path d="m501 86h0.44v16h-0.44z"/>
        <path d="m203 102h298v0.5h-298z"/>
        <path d="m203 86h0.44v16h-0.44z"/>
        <path d="m203 104h298v0.5h-298z"/>
        <path d="m501 104h0.44v16h-0.44z"/>
        <path d="m203 120h298v0.5h-298z"/>
        <path d="m203 104h0.44v16h-0.44z"/>
        <path d="m203 122h298v0.5h-298z"/>
        <path d="m501 122h0.44v16h-0.44z"/>
        <path d="m203 138h298v0.5h-298z"/>
        <path d="m203 123h0.44v16h-0.44z"/>
        <path d="m203 140h298v0.5h-298z"/>
        <path d="m501 140h0.44v16h-0.44z"/>
        <path d="m203 156h298v0.5h-298z"/>
        <path d="m203 141h0.44v16h-0.44z"/>
        <path d="m203 158h298v0.5h-298z"/>
        <path d="m501 158h0.44v28h-0.44z"/>
        <path d="m203 186h298v0.5h-298z"/>
        <path d="m203 159h0.44v28h-0.44z"/>
        <path d="m203 188h298v0.5h-298z"/>
        <path d="m501 188h0.44v28h-0.44z"/>
        <path d="m203 216h298v0.5h-298z"/>
        <path d="m203 188h0.44v28h-0.44z"/>
        <path d="m203 218h298v0.5h-298z"/>
        <path d="m501 218h0.44v41h-0.44z"/>
        <path d="m203 259h298v0.5h-298z"/>
        <path d="m203 218h0.44v41h-0.44z"/>
        <path d="m50 48h453v0.5h-453z"/>
        <path d="m503 48h0.44v213h-0.44z"/>
        <path d="m50 261h453v0.5h-453z"/>
        <path d="m50 48h0.5v213h-0.5z"/>
      </g>
    </g>
    <g transform="matrix(.88 0 0 1 25 0)">
      <g clip-path="url(#ac)">
        <path d="m209 53h7.5c0.83 0 1.5 0.67 1.5 1.5v7.5c0 0.83-0.67 1.5-1.5 1.5h-7.5c-0.83 0-1.5-0.67-1.5-1.5v-7.5c0-0.83 0.67-1.5 1.5-1.5z" fill="#3584e4"/>
        <path d="m209 58 2.2 2.6h0.75l4.1-4.9-0.19-1.1h-0.94l-3 3.8-0.75 0.19-1.5-1.7" fill="#fff"/>
      </g>
    </g>
    <g transform="matrix(.88 0 0 1 25 0)">
      <g clip-path="url(#ab)">
        <path d="m209 71h7.5c0.83 0 1.5 0.67 1.5 1.5v7.5c0 0.83-0.67 1.5-1.5 1.5h-7.5c-0.83 0-1.5-0.67-1.5-1.5v-7.5c0-0.83 0.67-1.5 1.5-1.5z" fill="#3584e4"/>
        <path d="m209 76 2.2 2.6h0.75l4.1-4.9-0.19-1.1h-0.94l-3 3.8-0.75 0.19-1.5-1.7" fill="#fff"/>
      </g>
    </g>
    <g transform="matrix(.88 0 0 1 25 0)">
      <g clip-path="url(#aa)">
        <path d="m209 89h7.5c0.83 0 1.5 0.67 1.5 1.5v7.5c0 0.83-0.67 1.5-1.5 1.5h-7.5c-0.83 0-1.5-0.67-1.5-1.5v-7.5c0-0.83 0.67-1.5 1.5-1.5z" fill="#3584e4"/>
        <path d="m209 95 2.2 2.6h0.75l4.1-4.9-0.19-1.1h-0.94l-3 3.8-0.75 0.19-1.5-1.7" fill="#fff"/>
      </g>
    </g>
    <g transform="matrix(.88 0 0 1 25 0)">
      <g clip-path="url(#z)">
        <path d="m209 107h7.5c0.83 0 1.5 0.67 1.5 1.5v7.5c0 0.83-0.67 1.5-1.5 1.5h-7.5c-0.83 0-1.5-0.67-1.5-1.5v-7.5c0-0.83 0.67-1.5 1.5-1.5z" fill="#3584e4"/>
        <path d="m209 113 2.2 2.6h0.75l4.1-4.9-0.19-1.1h-0.94l-3 3.8-0.75 0.19-1.5-1.7" fill="#fff"/>
      </g>
    </g>
    <g transform="matrix(.88 0 0 1 25 0)">
      <g clip-path="url(#y)">
        <path d="m209 125h7.5c0.83 0 1.5 0.67 1.5 1.5v7.5c0 0.83-0.67 1.5-1.5 1.5h-7.5c-0.83 0-1.5-0.67-1.5-1.5v-7.5c0-0.83 0.67-1.5 1.5-1.5z" fill="#3584e4"/>
        <path d="m209 131 2.2 2.6h0.75l4.1-4.9-0.19-1.1h-0.94l-3 3.8-0.75 0.19-1.5-1.7" fill="#fff"/>
      </g>
    </g>
    <g transform="matrix(.88 0 0 1 25 0)">
      <g clip-path="url(#x)">
        <path d="m209 143h7.5c0.83 0 1.5 0.67 1.5 1.5v7.5c0 0.83-0.67 1.5-1.5 1.5h-7.5c-0.83 0-1.5-0.67-1.5-1.5v-7.5c0-0.83 0.67-1.5 1.5-1.5z" fill="#3584e4"/>
        <path d="m209 149 2.2 2.6h0.75l4.1-4.9-0.19-1.1h-0.94l-3 3.8-0.75 0.19-1.5-1.7" fill="#fff"/>
      </g>
    </g>
    <g transform="matrix(.88 0 0 1 25 0)">
      <g clip-path="url(#w)">
        <path d="m209 167h7.5c0.83 0 1.5 0.67 1.5 1.5v7.5c0 0.83-0.67 1.5-1.5 1.5h-7.5c-0.83 0-1.5-0.67-1.5-1.5v-7.5c0-0.83 0.67-1.5 1.5-1.5z" fill="#3584e4"/>
        <path d="m209 173 2.2 2.6h0.75l4.1-4.9-0.19-1.1h-0.94l-3 3.8-0.75 0.19-1.5-1.7" fill="#fff"/>
      </g>
    </g>
    <g transform="matrix(.88 0 0 1 25 0)">
      <g clip-path="url(#v)">
        <path d="m209 197h7.5c0.83 0 1.5 0.67 1.5 1.5v7.5c0 0.83-0.67 1.5-1.5 1.5h-7.5c-0.83 0-1.5-0.67-1.5-1.5v-7.5c0-0.83 0.67-1.5 1.5-1.5z" fill="#3584e4"/>
        <path d="m209 202 2.2 2.6h0.75l4.1-4.9-0.19-1.1h-0.94l-3 3.8-0.75 0.19-1.5-1.7" fill="#fff"/>
      </g>
    </g>
    <g transform="matrix(.88 0 0 1 25 0)">
      <g clip-path="url(#u)">
        <path d="m209 221h7.5c0.83 0 1.5 0.67 1.5 1.5v7.5c0 0.83-0.67 1.5-1.5 1.5h-7.5c-0.83 0-1.5-0.67-1.5-1.5v-7.5c0-0.83 0.67-1.5 1.5-1.5z" fill="#3584e4"/>
        <path d="m209 226 2.2 2.6h0.75l4.1-4.9-0.19-1.1h-0.94l-3 3.8-0.75 0.19-1.5-1.7" fill="#fff"/>
      </g>
    </g>
    <g transform="matrix(1 0 0 1 -2.3 .19)">
      <g clip-path="url(#t)">
        <path d="m53 265h427c1.5 0 2.8 1.2 2.8 2.8v11c0 1.5-1.2 2.8-2.8 2.8h-427c-1.5 0-2.8-1.2-2.8-2.8v-11c0-1.5 1.2-2.8 2.8-2.8z" fill="#e9e9ed"/>
      </g>
    </g>
    <g transform="matrix(1 0 0 1 -2.3 .19)">
      <g clip-path="url(#s)">
        <path d="m53 265h427c1.5 0 2.8 1.2 2.8 2.8v11c0 1.5-1.2 2.8-2.8 2.8h-427c-1.5 0-2.8-1.2-2.8-2.8v-11c0-1.5 1.2-2.8 2.8-2.8z" fill="none" stroke="#8f8f9d" stroke-miterlimit="10" stroke-width=".5"/>
      </g>
    </g>
    <g fill="#333">
      <path d="m131 376h398v0.5h-398z"/>
      <path d="m529 376h0.48v16h-0.48z"/>
      <path d="m132 392h398v0.5h-398z"/>
      <path d="m131 376h0.48v16h-0.48z"/>
      <path d="m131 394h398v0.5h-398z"/>
      <path d="m529 394h0.48v41h-0.48z"/>
      <path d="m132 435h398v0.5h-398z"/>
      <path d="m131 395h0.48v41h-0.48z"/>
      <path d="m131 437h398v0.5h-398z"/>
      <path d="m529 437h0.48v45h-0.48z"/>
      <path d="m132 483h398v0.5h-398z"/>
      <path d="m131 438h0.48v45h-0.48z"/>
      <path d="m131 485h398v0.5h-398z"/>
      <path d="m529 485h0.48v16h-0.48z"/>
      <path d="m132 501h398v0.5h-398z"/>
      <path d="m131 485h0.48v16h-0.48z"/>
      <path d="m131 503h398v0.5h-398z"/>
      <path d="m529 503h0.48v16h-0.48z"/>
      <path d="m132 519h398v0.5h-398z"/>
      <path d="m131 503h0.48v16h-0.48z"/>
      <path d="m131 521h398v0.5h-398z"/>
      <path d="m529 521h0.48v28h-0.48z"/>
      <path d="m132 548h398v0.5h-398z"/>
      <path d="m131 521h0.48v28h-0.48z"/>
      <path d="m131 550h398v0.5h-398z"/>
      <path d="m529 550h0.48v16h-0.48z"/>
      <path d="m132 567h398v0.5h-398z"/>
      <path d="m131 551h0.48v16h-0.48z"/>
      <path d="m131 569h398v0.5h-398z"/>
      <path d="m529 569h0.48v16h-0.48z"/>
      <path d="m132 585h398v0.5h-398z"/>
      <path d="m131 569h0.48v16h-0.48z"/>
      <path d="m131 587h398v0.5h-398z"/>
      <path d="m529 587h0.48v16h-0.48z"/>
      <path d="m132 603h398v0.5h-398z"/>
      <path d="m131 587h0.48v16h-0.48z"/>
      <path d="m131 605h398v0.5h-398z"/>
      <path d="m529 605h0.48v16h-0.48z"/>
      <path d="m132 621h398v0.5h-398z"/>
      <path d="m131 605h0.48v16h-0.48z"/>
      <path d="m50 374h481v0.5h-481z"/>
      <path d="m531 374h0.48v249h-0.48z"/>
      <path d="m50 623h478v0.5h-478z"/>
      <path d="m50 374h0.5v249h-0.5z"/>
    </g>
    <g transform="matrix(.97 0 0 1 4.5 0)">
      <g clip-path="url(#r)">
        <path d="m137 379h7.5c0.83 0 1.5 0.67 1.5 1.5v7.5c0 0.83-0.67 1.5-1.5 1.5h-7.5c-0.83 0-1.5-0.67-1.5-1.5v-7.5c0-0.83 0.67-1.5 1.5-1.5z" fill="#3584e4"/>
        <path d="m137 385 2.2 2.6h0.75l4.1-4.9-0.19-1.1h-0.94l-3 3.8-0.75 0.19-1.5-1.7" fill="#fff"/>
      </g>
    </g>
    <g transform="matrix(.97 0 0 1 4.5 0)">
      <g clip-path="url(#q)">
        <path d="m137 397h7.5c0.83 0 1.5 0.67 1.5 1.5v7.5c0 0.83-0.67 1.5-1.5 1.5h-7.5c-0.83 0-1.5-0.67-1.5-1.5v-7.5c0-0.83 0.67-1.5 1.5-1.5z" fill="#3584e4"/>
        <path d="m137 403 2.2 2.6h0.75l4.1-4.9-0.19-1.1h-0.94l-3 3.8-0.75 0.19-1.5-1.7" fill="#fff"/>
      </g>
    </g>
    <g transform="matrix(.97 0 0 1 4.5 0)">
      <g clip-path="url(#p)">
        <path d="m137 440h86c0.69 0 1.2 0.56 1.2 1.2v14c0 0.69-0.56 1.2-1.2 1.2h-86c-0.69 0-1.2-0.56-1.2-1.2v-14c0-0.69 0.56-1.2 1.2-1.2z" fill="#fff" stroke="#8f8f9d" stroke-miterlimit="10" stroke-width=".5"/>
      </g>
    </g>
    <g transform="matrix(.97 0 0 1 4.5 0)">
      <path d="m137 488h7.5c0.41 0 0.75 0.34 0.75 0.75v7.5c0 0.41-0.34 0.75-0.75 0.75h-7.5c-0.41 0-0.75-0.34-0.75-0.75v-7.5c0-0.41 0.34-0.75 0.75-0.75z" fill="#fff"/>
    </g>
    <g transform="matrix(.97 0 0 1 4.5 0)">
      <g clip-path="url(#o)">
        <path d="m137 488h7.5c0.41 0 0.75 0.34 0.75 0.75v7.5c0 0.41-0.34 0.75-0.75 0.75h-7.5c-0.41 0-0.75-0.34-0.75-0.75v-7.5c0-0.41 0.34-0.75 0.75-0.75z" fill="none" stroke="#8f8f9d" stroke-miterlimit="10" stroke-width="1.5"/>
      </g>
    </g>
    <g transform="matrix(.97 0 0 1 4.5 0)">
      <g clip-path="url(#n)">
        <path d="m137 506h7.5c0.83 0 1.5 0.67 1.5 1.5v7.5c0 0.83-0.67 1.5-1.5 1.5h-7.5c-0.83 0-1.5-0.67-1.5-1.5v-7.5c0-0.83 0.67-1.5 1.5-1.5z" fill="#3584e4"/>
        <path d="m137 511 2.2 2.6h0.75l4.1-4.9-0.19-1.1h-0.94l-3 3.8-0.75 0.19-1.5-1.7" fill="#fff"/>
      </g>
    </g>
    <g transform="matrix(.97 0 0 1 4.5 0)">
      <path d="m137 530h7.5c0.41 0 0.75 0.34 0.75 0.75v7.5c0 0.41-0.34 0.75-0.75 0.75h-7.5c-0.41 0-0.75-0.34-0.75-0.75v-7.5c0-0.41 0.34-0.75 0.75-0.75z" fill="#fff"/>
    </g>
    <g transform="matrix(.97 0 0 1 4.5 0)">
      <g clip-path="url(#m)">
        <path d="m137 530h7.5c0.41 0 0.75 0.34 0.75 0.75v7.5c0 0.41-0.34 0.75-0.75 0.75h-7.5c-0.41 0-0.75-0.34-0.75-0.75v-7.5c0-0.41 0.34-0.75 0.75-0.75z" fill="none" stroke="#8f8f9d" stroke-miterlimit="10" stroke-width="1.5"/>
      </g>
    </g>
    <g transform="matrix(.97 0 0 1 4.5 0)">
      <path d="m137 554h7.5c0.41 0 0.75 0.34 0.75 0.75v7.5c0 0.41-0.34 0.75-0.75 0.75h-7.5c-0.41 0-0.75-0.34-0.75-0.75v-7.5c0-0.41 0.34-0.75 0.75-0.75z" fill="#fff"/>
    </g>
    <g transform="matrix(.97 0 0 1 4.5 0)">
      <g clip-path="url(#l)">
        <path d="m137 554h7.5c0.41 0 0.75 0.34 0.75 0.75v7.5c0 0.41-0.34 0.75-0.75 0.75h-7.5c-0.41 0-0.75-0.34-0.75-0.75v-7.5c0-0.41 0.34-0.75 0.75-0.75z" fill="none" stroke="#8f8f9d" stroke-miterlimit="10" stroke-width="1.5"/>
      </g>
    </g>
    <g transform="matrix(.97 0 0 1 4.5 0)">
      <path d="m137 572h7.5c0.41 0 0.75 0.34 0.75 0.75v7.5c0 0.41-0.34 0.75-0.75 0.75h-7.5c-0.41 0-0.75-0.34-0.75-0.75v-7.5c0-0.41 0.34-0.75 0.75-0.75z" fill="#fff"/>
    </g>
    <g transform="matrix(.97 0 0 1 4.5 0)">
      <g clip-path="url(#k)">
        <path d="m137 572h7.5c0.41 0 0.75 0.34 0.75 0.75v7.5c0 0.41-0.34 0.75-0.75 0.75h-7.5c-0.41 0-0.75-0.34-0.75-0.75v-7.5c0-0.41 0.34-0.75 0.75-0.75z" fill="none" stroke="#8f8f9d" stroke-miterlimit="10" stroke-width="1.5"/>
      </g>
    </g>
    <g transform="matrix(.97 0 0 1 4.5 0)">
      <path d="m137 590h7.5c0.41 0 0.75 0.34 0.75 0.75v7.5c0 0.41-0.34 0.75-0.75 0.75h-7.5c-0.41 0-0.75-0.34-0.75-0.75v-7.5c0-0.41 0.34-0.75 0.75-0.75z" fill="#fff"/>
    </g>
    <g transform="matrix(.97 0 0 1 4.5 0)">
      <g clip-path="url(#j)">
        <path d="m137 590h7.5c0.41 0 0.75 0.34 0.75 0.75v7.5c0 0.41-0.34 0.75-0.75 0.75h-7.5c-0.41 0-0.75-0.34-0.75-0.75v-7.5c0-0.41 0.34-0.75 0.75-0.75z" fill="none" stroke="#8f8f9d" stroke-miterlimit="10" stroke-width="1.5"/>
      </g>
    </g>
    <g transform="matrix(.97 0 0 1 4.5 0)">
      <g clip-path="url(#i)">
        <path d="m137 608h7.5c0.83 0 1.5 0.67 1.5 1.5v7.5c0 0.83-0.67 1.5-1.5 1.5h-7.5c-0.83 0-1.5-0.67-1.5-1.5v-7.5c0-0.83 0.67-1.5 1.5-1.5z" fill="#3584e4"/>
        <path d="m137 613 2.2 2.6h0.75l4.1-4.9-0.19-1.1h-0.94l-3 3.8-0.75 0.19-1.5-1.7" fill="#fff"/>
      </g>
    </g>
    <g transform="matrix(1.1 0 0 1 -5.8 1.1)">
      <g clip-path="url(#h)">
        <path d="m53 627h427c1.5 0 2.8 1.2 2.8 2.8v11c0 1.5-1.2 2.8-2.8 2.8h-427c-1.5 0-2.8-1.2-2.8-2.8v-11c0-1.5 1.2-2.8 2.8-2.8z" fill="#e9e9ed" stroke="#8f8f9d" stroke-miterlimit="10" stroke-width=".5"/>
      </g>
    </g>
    <g fill="#333">
      <path d="m141 725h268v0.5h-268z"/>
      <path d="m410 725h0.5v29h-0.5z"/>
      <path d="m142 754h268v0.5h-268z"/>
      <path d="m141 726h0.5v29h-0.5z"/>
      <path d="m141 756h268v0.5h-268z"/>
      <path d="m410 756h0.5v38h-0.5z"/>
      <path d="m142 793h268v0.5h-268z"/>
      <path d="m141 756h0.5v38h-0.5z"/>
      <path d="m50 723h362v0.5h-362z"/>
      <path d="m412 723h0.5v72h-0.5z"/>
      <path d="m50 795h362v0.5h-362z"/>
      <path d="m50 724h0.5v72h-0.5z"/>
    </g>
    <g clip-path="url(#g)">
      <path d="m147 728h7.5c0.83 0 1.5 0.67 1.5 1.5v7.5c0 0.83-0.67 1.5-1.5 1.5h-7.5c-0.83 0-1.5-0.67-1.5-1.5v-7.5c0-0.83 0.67-1.5 1.5-1.5z" fill="#3584e4"/>
      <path d="m147 734 2.2 2.6h0.75l4.1-4.9-0.19-1.1h-0.94l-3 3.8-0.75 0.19-1.5-1.7" fill="#fff"/>
    </g>
    <g clip-path="url(#f)">
      <path d="m148 758h43c1.5 0 2.8 1.2 2.8 2.8v11c0 1.5-1.2 2.8-2.8 2.8h-43c-1.5 0-2.8-1.2-2.8-2.8v-11c0-1.5 1.2-2.8 2.8-2.8z" fill="#e9e9ed"/>
    </g>
    <g clip-path="url(#e)">
      <path d="m148 758h43c1.5 0 2.8 1.2 2.8 2.8v11c0 1.5-1.2 2.8-2.8 2.8h-43c-1.5 0-2.8-1.2-2.8-2.8v-11c0-1.5 1.2-2.8 2.8-2.8z" fill="none" stroke="#8f8f9d" stroke-miterlimit="10" stroke-width=".5"/>
      <path d="m183 766 2.6 3h0.75l2.6-3v-0.75h-0.75l-2.2 2.6-2.2-2.6h-0.75"/>
    </g>
    <g transform="matrix(.83 0 0 1 8.3 -2.2)">
      <g clip-path="url(#d)">
        <path d="m53 799h427c1.5 0 2.8 1.2 2.8 2.8v11c0 1.5-1.2 2.8-2.8 2.8h-427c-1.5 0-2.8-1.2-2.8-2.8v-11c0-1.5 1.2-2.8 2.8-2.8z" fill="#e9e9ed"/>
      </g>
    </g>
    <g transform="matrix(.83 0 0 1 8.3 -2.2)">
      <g clip-path="url(#c)">
        <path d="m53 799h427c1.5 0 2.8 1.2 2.8 2.8v11c0 1.5-1.2 2.8-2.8 2.8h-427c-1.5 0-2.8-1.2-2.8-2.8v-11c0-1.5 1.2-2.8 2.8-2.8z" fill="none" stroke="#8f8f9d" stroke-miterlimit="10" stroke-width=".5"/>
      </g>
    </g>
    <g transform="matrix(.97 0 0 1 4.5 0)">
      <g clip-path="url(#b)" opacity=".5">
        <g clip-path="url(#a)">
          <path d="m214 445-0.68 0.68 1.6 1.6-1.6 1.6 0.68 0.68 1.6-1.6 1.6 1.6 0.68-0.68-1.6-1.6 1.6-1.6-0.68-0.68-1.6 1.6zm6.1 2.2c0 2.5-2 4.5-4.5 4.5s-4.5-2-4.5-4.5 2-4.5 4.5-4.5 4.5 2 4.5 4.5z"/>
        </g>
      </g>
    </g>
  </g>
  <g transform="translate(-45 -6.1e-5)">
    <g transform="matrix(1.3 0 0 1.3 0 6.1e-5)" fill="#000000" font-family="Inter">
      <text transform="translate(50 20)" font-size="21px" font-weight="bold"><tspan x="0 12.537 25.872 31.584 39.731998 44.583 56.763 69.089996 81.417 94.290001 107.331 120.372 128.52 133.371 145.15199 157.689 165.83701 173.985 179.69701 192.73801 206.03101" y="0">edit account settings</tspan></text>
      <g font-size="10px">
        <g font-weight="bold">
          <text transform="translate(77 62)"><tspan x="0 6.2684999 15.834 21.924 24.780001 27.636 30.061501 36.582001 43.018501 47.061001 49.917 53.959499 56.815498 62.979 69.069 73.142998 75.967499 82.403999 88.9245 94.815002" y="0">email notifications:</tspan></text>
          <text transform="translate(92 80)"><tspan x="0 6.2684999 15.834 21.924 24.780001 27.636 30.061501 34.062 40.330502 46.966499 49.822498 52.678501 58.946999 64.837502" y="0">email replies:</tspan></text>
          <text transform="translate(84 98)"><tspan x="0 6.2684999 15.834 21.924 24.780001 27.636 30.061501 39.626999 45.8955 51.785999 57.676498 63.766499 70.413002 76.681503 82.571999" y="0">email messages:</tspan></text>
          <text transform="translate(86 116)"><tspan x="0 6.2684999 15.834 21.924 24.780001 27.636 30.061501 39.626999 45.8955 52.416 56.490002 59.314499 65.750999 72.2715 78.162003" y="0">email mentions:</tspan></text>
          <text transform="translate(91 134)"><tspan x="0 5.8905001 12.4425 18.732 27.657 30.0825 35.973 41.947498 48.037498 52.1115 58.2015 62.4855 68.375999" y="0">show avatars:</tspan></text>
          <text transform="translate(72 152)"><tspan x="0 5.8905001 12.4425 18.732 27.657 30.0825 35.973 39.994499 46.431 50.893501 57.035999 59.461498 66.097504 70.108498 76.219498 82.362 85.218002 91.4235 100.3485 106.239" y="0">show story previews:</tspan></text>
          <text transform="translate(70 170)"><tspan x="0 5.8905001 12.4425 18.732 27.657 30.0825 35.973 42.4935 49.160999 58.726501 61.5825 65.656502 69.667503 75.935997 82.6035 85.028999 90.919502 94.9515 101.388 105.8505" y="0">show submitted story</tspan><tspan x="34.637493 38.837494 45.389496 49.400494 55.668995 61.758995 68.426491 74.316994" y="12.60001">threads:</tspan></text>
          <text transform="translate(60 200)"><tspan x="0 5.8905001 12.4425 18.732 27.657 30.0825 35.973 39.994499 46.431 50.715 53.570999 59.8395 65.730003 68.155502 77.080498 79.936501 84.115501 90.667503 93.093002 99.2565 105.693 112.2135 116.214 122.3775 128.394" y="0">show stories with content</tspan><tspan x="43.8125 52.737499 58.827499 63.1115 69.631996 72.487999 79.008499 85.654999" y="12.60001">warning:</tspan></text>
          <text transform="translate(94 242)"><tspan x="0 5.8905001 12.4425 18.732 27.657 30.0825 36.245998 42.682499 45.538502 51.974998 56.258999 62.149502" y="0">show colors:</tspan></text>
        </g>
        <text transform="translate(207 242)"><tspan x="0 2.7720001 6.552 9.5024996 13.1145 19.025999 21.5145 26.995501 33.106499 36.035999 38.9865 46.766998 49.539001 52.489498 58.401001 64.543503 71.053497 74.003998 77.815498 83.726997 90.121498 93.071999 98.931 105.189 107.6775 113.9355 117.8415 123.3225 126.273 132.18449 135.9015 142.0125 144.963 151.1055 157.36349 161.175 164.1255 169.60651 175.8015 181.8495 190.3755 196.51801 199.44749 202.39799 208.30949 214.452 220.96201 223.91251 226.401 230.181 233.1315 238.83299 244.49249 250.40401 254.2155 260.12701 264.03299 269.51401 272.46451 278.37601 282.10349" y="0">If false, UI and tag colors are not shown, and if avatars are</tspan><tspan x="0 6.5100002 8.9984999 14.4795 20.874001 23.362499 29.053499 34.681499 40.7925 47.302502 50.231998 53.182499 57.098999 63.293999 69.226501 75.064499 78.014999 83.926498 87.653999 93.764999 96.7155 99.204002 105.3465 108.297 117.4215 123.6795 129.82201 136.08 141.939 148.134 151.851 158.10899 167.23351 173.3445" y="12.60001">displayed, they are in monochrome.</tspan></text>
        <text transform="translate(249 277)"><tspan x="0 6.6884999 12.7785 19.2885 28.413 30.901501" y="0">Submit</tspan></text>
      </g>
      <text transform="translate(50 305)" font-size="16px" font-weight="bold"><tspan x="0 9.40275 19.403999 23.688 29.799 33.437248 46.604252 56.007 65.409752 74.560501 78.844498 88.05825 91.696503 101.69775 105.98175 115.9515 125.35425 134.19 140.30099 143.93925 152.77499 162.17775 168.28876 174.39975 178.68375 188.46449 198.43425" y="0">edit weekly digest settings</tspan></text>
      <g font-size="10px">
        <text transform="translate(50 340)"><tspan x="0 7.9905 14.3955 17.5875 23.52 29.158501 35.269501 39.343498 45.444 48.636002 54.117001 60.228001 62.716499 68.827499 74.686501 78.434998 84.545998 91.297501 94.5 101.01 106.701 112.182 115.374 118.566 124.194 130.452 136.79401 139.99651 148.52251 151.011 153.4995 156.22951 159.43201 163.149 169.25999 175.119 181.23 183.71851 189.3465 195.7095 198.912 205.0755 208.278 210.76649 213.255 218.73599 222.7785 225.981 232.239 236.2605 239.4735 245.40601 251.034 257.14499 261.22949 267.31949 270.522 276.00299 279.7515 286.00949 290.09399 296.18399 299.38651 305.24551 308.96249 315.07349 320.98499 324.74399 330.85501 337.60651 340.81949 346.30051 348.789 354.93149 360.7905 367.1535 370.34549 374.28299 380.478 386.83051 390.02249 392.51099 398.42249 403.9035 407.96701 411.16949 414.98099 417.46951 426.59399" y="0">On every selected day, you will receive a list of every story created since the last time</tspan><tspan x="0 5.6279998 11.886 17.976 20.9265 24.643499 30.754499 36.613499 42.724499 45.213001 50.841 56.952 63.462002 66.412498 72.323997 75.274498 81.7845 84.273003 90.667503 96.778503 102.2595 106.0395" y="12.60001">you received a digest.</tspan></text>
        <text transform="translate(73 388)" font-weight="bold"><tspan x="0 6.0900002 12.2535 16.327499 19.1835 25.115999 31.384501" y="0">active:</tspan></text>
        <text transform="translate(64 419)" font-weight="bold"><tspan x="0 6.0900002 8.9460001 11.802 14.2275 20.118 24.129 30.5655 34.849499 37.705502 43.973999 49.864498" y="0">all stories:</tspan></text>
        <text transform="translate(136 419)"><tspan x="0 2.7720001 6.552 9.5024996 13.1145 19.025999 21.5145 26.995501 33.106499 36.035999 38.9865 45.244499 51.387001 53.8755 59.713501 62.664001 68.144997 71.893501 78.151497 82.057503 84.545998 90.656998 96.138 99.088501 102.8685 106.5855 112.8435 121.968 124.9185 130.39951 136.4895 142.9995 148.4805 154.33949 158.2455 160.73399 167.244 173.355 179.86501 182.784 188.6955 195.09 201.4845 205.21201 211.323 217.7175 223.629 227.44051 229.929 236.187 242.3295 247.8105 250.761 259.28699 261.77551 264.26401 266.7525 269.703 276.21301 282.32401 285.27451 291.13351 297.39151 303.534 309.01501 311.50351 318.01349 324.09299 327.8205 333.93149 340.4415 343.392 346.92001 353.17801 357.08401 360.03448 363.97198 370.16699" y="0">If false, only stories from subscribed aggregations will be considered for the</tspan><tspan x="0 6.5100002 8.9984999 15.393 21.504 26.985001 30.796499" y="12.60001">digest.</tspan></text>
        <text transform="translate(70 464)" font-weight="bold"><tspan x="0 2.8559999 8.9460001 14.8365 18.9105 21.336 25.620001 32.140499 38.660999" y="0">last run:</tspan></text>
        <text transform="translate(141 451)"><tspan x="0 6.5625 15.2775 21.262501 27.825001 36.760502 42.745499 49.098 55.6605 62.013" y="0">08/03/2021</tspan></text>
        <text transform="translate(136 466)"><tspan x="0 6.7410002 12.936 19.047001 21.997499 24.486 30.397499 35.878502 39.689999 42.640499 46.420502 48.909 58.033501 64.144501 67.095001 73.0065 75.957001 82.467003 84.955498 91.349998 97.460999 102.942 106.7535 109.6725 118.1985 124.11 129.591 132.5415 138.02251 144.1335 150.276 154.08749 156.97501 159.92551 167.55901 170.0475 176.15849 182.07001 185.976 188.9265 192.675 198.933 201.8835 205.61099 211.722 217.58099 223.692 226.1805 231.798 237.909 240.8595 243.34801 247.1595 250.11 256.02151 262.41599 268.32751 270.81601 276.9585 279.888 282.8385 289.0965 293.0025 295.953 301.43399 307.54501 311.35651 314.30701 318.03448 324.29251 327.24301 333.50101 337.42801 343.62299 349.73401 353.64001 356.59052 363.10049 369.01199 372.7605 378.87149 381.82199 385.5705" y="0">The last time a digest was sent. Clear to receive it again, or set to other date to</tspan><tspan x="0 5.8590002 12.054 17.9655 24.108 30.502501 36.613499 39.563999 48.09 54.285 60.196499 64.008003 66.958504 72.439499 76.188004 82.445999 86.351997 88.8405 94.9515 100.4325 103.383 109.011 115.269 121.359 124.3095 132.83549 135.32401 137.8125 140.30099 143.2515 146.95799 153.069 158.92799 165.039 167.5275 173.1555 179.26649 182.217 184.70551 190.84801 193.79849 199.416 205.674 211.76401 215.67 218.6205 224.763 230.72701 236.38651 240.198 243.1485 249.65849 252.147 258.5415 264.6525 270.13351 273.91351" y="12.599979">change what stories you will receive in your next digest.</tspan></text>
        <g font-weight="bold">
          <text transform="translate(61 497)"><tspan x="0 6.4365001 12.957 15.3825 24.948 31.384501 37.904999 44.572498 50.442001 56.584499" y="0">on monday:</tspan></text>
          <text transform="translate(61 515)"><tspan x="0 6.4365001 12.957 15.3825 19.456499 25.976999 32.245499 38.136002 44.803501 50.683498 56.826" y="0">on tuesday:</tspan></text>
          <text transform="translate(84 532)"><tspan x="0 6.4365001" y="0">on</tspan><tspan x="-24.65 -15.8615 -9.5929995 -2.9254994 3.5950005 9.8635006 15.754001 22.421501 28.312 34.454502" y="12.600032">wednesday:</tspan></text>
          <text transform="translate(58 563)"><tspan x="0 6.4365001 12.957 15.3825 19.572001 26.124001 32.644501 36.928501 42.819 49.4865 55.366501 61.508999" y="0">on thursday:</tspan></text>
          <text transform="translate(66 581)"><tspan x="0 6.4365001 12.957 15.3825 19.424999 23.709 26.565001 33.232498 39.102001 45.244499" y="0">on friday:</tspan></text>
          <text transform="translate(59 599)"><tspan x="0 6.4365001 12.957 15.3825 21.273001 27.363001 31.437 37.9575 41.958 48.6255 54.515999 60.658501" y="0">on saturday:</tspan></text>
          <text transform="translate(63 617)"><tspan x="0 6.4365001 12.957 15.3825 21.273001 27.793501 34.313999 40.981499 46.8615 53.004002" y="0">on sunday:</tspan></text>
        </g>
        <text x="274.19772" y="638.4375"><tspan x="274.19772 280.8862 286.9762 293.48621 302.61072 305.09921" y="638.4375">Submit</tspan></text>
      </g>
      <text transform="translate(50 667)" font-size="16px" font-weight="bold"><tspan x="0 9.40275 19.403999 23.688 29.799 33.437248 42.272999 51.675751 60.511501 69.347252 73.631248 83.286003 93.06675 96.705002 105.54075 114.9435 121.0545 127.1655 131.44949 141.23026 151.2" y="0">edit session settings</tspan></text>
      <g font-size="10px">
        <text transform="translate(50 702)"><tspan x="0 6.7410002 12.936 19.047001 24.528 30.639 33.5895 39.070499 45.181499 48.961498 52.772999 55.261501 61.403999 67.7985 73.279503 76.230003 82.141502 85.869003 91.980003 94.930496 100.4115 104.16 110.418 114.135 120.246 126.756 129.7065 132.19501 138.33749 141.28799 146.9055 153.1635 159.25349 163.1595 166.11 172.62 176.33701 182.40601 190.93201 196.41299 202.524 205.77901" y="0">These settings are stored in your browser.</tspan></text>
        <text transform="translate(65 744)" font-weight="bold"><tspan x="0 6.1424999 8.9984999 15.141 17.997 24.664499 27.09 33.253502 39.689999 42.5145 48.951 53.235001 59.1255" y="0">vivid colors:</tspan></text>
        <text transform="translate(146 750)"><tspan x="0 2.7720001 6.552 9.5024996 13.1145 19.025999 21.5145 26.995501 33.106499 36.035999 38.9865 46.766998 49.539001 52.468498 55.418999 59.230499 65.141998 71.536499 74.487 80.398499 86.541 93.051003 96.001503 98.489998 107.6145 113.526 119.9205 126.0315 128.98199 134.841 141.099 143.58749 149.8455 153.7515 159.2325 162.183 168.0945 171.80099 177.912 180.8625 189.987 195.8985 202.40849 208.5195 211.47 213.9585 220.0695 225.55051 231.03149 233.9505 239.7885 242.27699 248.11501 250.6035 257.11349" y="0">If false, UI, tag and image colors are made less vivid.</tspan></text>
        <text transform="translate(55 779)" font-weight="bold"><tspan x="0 3.8429999 10.2795 16.799999 20.874001 23.2995 29.190001 32.046001 37.862999 44.1315 46.556999 50.3895 56.4795 62.643002 66.653999 73.0905 77.374496" y="0">font size factor:</tspan></text>
        <text transform="translate(150 770)"><tspan x="0 4.8720002 11.4345 17.997" y="0">100%</tspan></text>
        <text transform="translate(146 788)"><tspan x="0 4.8720002 11.4345 17.997" y="0">100%</tspan></text>
      </g>
      <g>
        <text transform="translate(175 788)" font-size="12px"><tspan x="0 5.6027999 11.2056 18.535126" y="0">115%</tspan></text>
        <text transform="translate(206 788)" font-size="13px"><tspan x="0 6.0900002 14.030625 21.997499" y="0">125%</tspan></text>
        <text transform="translate(242 788)" font-size="14px"><tspan x="0 6.5771999 15.5925 24.196726" y="0">135%</tspan></text>
        <text x="212.65323" y="811" font-size="10px"><tspan x="212.65323 219.34172 225.43173 231.94173 241.06622 243.55473" y="811">Submit</tspan></text>
      </g>
    </g>
  </g>
</svg>
