<svg id="svg" version="1.1" viewBox="0 0 274 155" xmlns="http://www.w3.org/2000/svg">
  <defs>
    <clipPath id="a">
      <path d="m36 36h770v524h-770z"/>
    </clipPath>
    <clipPath id="d">
      <path d="m100 231h101v22h-101z"/>
    </clipPath>
    <clipPath id="c">
      <path d="m133 272h16v16h-16z"/>
    </clipPath>
    <clipPath id="b">
      <path d="m206 272h16v16h-16z"/>
    </clipPath>
  </defs>
  <g transform="matrix(1.3 0 0 1.3 -125 -242)">
    <g transform="matrix(.27 0 0 .22 84 173)">
      <g clip-path="url(#a)">
        <path d="m36 36h770v524h-770z" fill="#fff"/>
      </g>
    </g>
    <text transform="translate(100 209)" fill="#000000" font-family="Inter" font-size="21px" font-weight="bold"><tspan x="0 13.464991 26.064676 34.675518 46.515423 59.452789 72.55899 84.799896 90.540451 96.281013 108.12092 120.7206 134.12228 138.99754 146.72197 159.32166 171.92134 185.32301" y="0">Personalised feeds</tspan></text>
    <g clip-path="url(#d)">
      <path d="m104 232h93c2 0 3.7 1.7 3.7 3.7v14c0 2-1.7 3.7-3.7 3.7h-93c-2 0-3.7-1.7-3.7-3.7v-14c0-2 1.7-3.7 3.7-3.7z" fill="#e9e9ed" stroke="#8f8f9d" stroke-miterlimit="10" stroke-width=".67"/>
      <text transform="translate(106 247)" fill="#000000" font-family="Inter" font-size="14px"><tspan x="0 4.9948502 13.18359 16.518181 23.86272 31.20726 39.367859 47.556599 51.510269 56.519192 64.904907 72.235382 80.424118" y="0">reissue token</tspan></text>
    </g>
    <text transform="translate(100 285)" fill="#000000" font-family="Inter" font-size="14px"><tspan x="0 8.9907303 17.95332 26.915911" y="0">RSS </tspan></text>
    <g clip-path="url(#c)">
      <path d="m135 272c-1.1 0-2 0.9-2 2v12c0 1.1 0.9 2 2 2h12c1.1 0 2-0.9 2-2v-12c0-1.1-0.9-2-2-2zm1.5 2.5c5.6 0 10 4.5 10 10 0 0.56-0.45 1-1 1s-1-0.45-1-1c0-4.4-3.6-8-8-8-0.56 0-1-0.45-1-1 0-0.55 0.45-1 1-1zm0 4c3.3 0 6 2.7 6 6 0 0.56-0.45 1-1 1-0.55 0-1-0.45-1-1 0-2.2-1.8-4-4-4-0.56 0-1-0.45-1-1s0.45-1 1-1zm0.5 7c-0.84 0-1.5-0.68-1.5-1.5 0-0.84 0.67-1.5 1.5-1.5 0.83 0 1.5 0.67 1.5 1.5 0 0.83-0.67 1.5-1.5 1.5z" fill="#dc3545"/>
    </g>
    <text transform="translate(165 285)" fill="#000000" font-family="Inter" font-size="14px"><tspan x="0 9.0329399 14.05593 22.44165 34.66848" y="0">Atom </tspan></text>
    <g clip-path="url(#b)" fill="#dc3545">
      <path d="m220 273c0.56 0 1 0.45 1 1v12c0 0.56-0.45 1-1 1h-12c-0.55 0-1-0.45-1-1v-12c0-0.56 0.45-1 1-1zm-12-1c-1.1 0-2 0.9-2 2v12c0 1.1 0.9 2 2 2h12c1.1 0 2-0.9 2-2v-12c0-1.1-0.9-2-2-2z"/>
      <path d="m212 284c0 0.83-0.68 1.5-1.5 1.5s-1.5-0.68-1.5-1.5c0-0.84 0.68-1.5 1.5-1.5s1.5 0.67 1.5 1.5zm-3-8.5c0-0.55 0.45-1 1-1 5.6 0 10 4.5 10 10 0 0.56-0.45 1-1 1-0.55 0-1-0.45-1-1 0-4.4-3.6-8-8-8-0.56 0-1-0.45-1-1zm0 4c0-0.56 0.45-1 1-1 3.3 0 6 2.7 6 6 0 0.56-0.45 1-1 1-0.56 0-1-0.45-1-1 0-2.2-1.8-4-4-4-0.56 0-1-0.45-1-1z"/>
    </g>
  </g>
</svg>
