<svg id="svg" version="1.1" viewBox="0 0 455 402" xmlns="http://www.w3.org/2000/svg">
  <defs>
    <clipPath id="r">
      <path d="m36 36h770v524h-770z"/>
    </clipPath>
    <clipPath id="u">
      <path d="m100 138h2.2v2.2h-2.2z"/>
    </clipPath>
    <clipPath id="t">
      <path d="m140 138h2.2v2.2h-2.2z"/>
    </clipPath>
    <clipPath id="s">
      <path d="m142 138v17l-8.5-8.5z"/>
    </clipPath>
    <clipPath id="q">
      <path d="m140 138h2.2v2.2h-2.2z"/>
    </clipPath>
    <clipPath id="p">
      <path d="m100 138h42l-8.5 8.5h-25z"/>
    </clipPath>
    <clipPath id="o">
      <path d="m140 153h2.2v2.2h-2.2z"/>
    </clipPath>
    <clipPath id="n">
      <path d="m100 153h2.2v2.2h-2.2z"/>
    </clipPath>
    <clipPath id="m">
      <path d="m100 155v-17l8.5 8.5z"/>
    </clipPath>
    <clipPath id="l">
      <path d="m100 153h2.2v2.2h-2.2z"/>
    </clipPath>
    <clipPath id="k">
      <path d="m142 155h-42l8.5-8.5h25z"/>
    </clipPath>
    <clipPath id="j">
      <path d="m102 138h38v0.43h-38z"/>
    </clipPath>
    <clipPath id="i">
      <path d="m142 140h0.43v13h-0.43z"/>
    </clipPath>
    <clipPath id="h">
      <path d="m102 154h38v0.43h-38z"/>
    </clipPath>
    <clipPath id="g">
      <path d="m100 140h0.43v13h-0.43z"/>
    </clipPath>
    <clipPath id="f">
      <path d="m100 180h306v15h-306z"/>
    </clipPath>
    <clipPath id="e">
      <path d="m100 240h306v15h-306z"/>
    </clipPath>
    <clipPath id="d">
      <path d="m392 241h12v6.1h-12z"/>
    </clipPath>
    <clipPath id="c">
      <path d="m392 247h12v6.1h-12z"/>
    </clipPath>
    <clipPath id="b">
      <path d="m100 299h306v47h-306z"/>
    </clipPath>
    <clipPath id="a">
      <path d="m378 351h29v14h-29z"/>
    </clipPath>
  </defs>
  <g transform="matrix(1.3 0 0 1.3 -105 -107)">
    <g transform="matrix(.44 0 0 .58 63 59)">
      <g clip-path="url(#r)" fill="#fff">
        <path d="m36 36h770v524h-770z"/>
        <path d="m36 36h770v524h-770z"/>
      </g>
    </g>
    <text transform="translate(100 111)" fill="#000000" font-family="Inter" font-size="18px" font-weight="bold"><tspan x="0 11.34567 22.179779 37.709278 41.929649 52.526249 60.49197 67.43457 77.684036 81.904411 88.938362 93.907799 98.877243 105.87465 116.78184" y="0">new arts filter</tspan></text>
    <g clip-path="url(#u)">
      <path d="m102 138h38c1.1 0 2 0.88 2 2v13c0 1.1-0.88 2-2 2h-38c-1.1 0-2-0.88-2-2v-13c0-1.1 0.88-2 2-2zm38 0.44h-38c-0.84 0-1.5 0.68-1.5 1.5v13c0 0.84 0.68 1.5 1.5 1.5h38c0.84 0 1.5-0.68 1.5-1.5v-13c0-0.84-0.68-1.5-1.5-1.5z" fill="#808080"/>
    </g>
    <g clip-path="url(#t)">
      <g clip-path="url(#s)">
        <path d="m102 138h38c1.1 0 2 0.88 2 2v13c0 1.1-0.88 2-2 2h-38c-1.1 0-2-0.88-2-2v-13c0-1.1 0.88-2 2-2zm38 0.44h-38c-0.84 0-1.5 0.68-1.5 1.5v13c0 0.84 0.68 1.5 1.5 1.5h38c0.84 0 1.5-0.68 1.5-1.5v-13c0-0.84-0.68-1.5-1.5-1.5z" fill="#555"/>
      </g>
    </g>
    <g clip-path="url(#q)">
      <g clip-path="url(#p)">
        <path d="m102 138h38c1.1 0 2 0.88 2 2v13c0 1.1-0.88 2-2 2h-38c-1.1 0-2-0.88-2-2v-13c0-1.1 0.88-2 2-2zm38 0.44h-38c-0.84 0-1.5 0.68-1.5 1.5v13c0 0.84 0.68 1.5 1.5 1.5h38c0.84 0 1.5-0.68 1.5-1.5v-13c0-0.84-0.68-1.5-1.5-1.5z" fill="#808080"/>
      </g>
    </g>
    <g clip-path="url(#o)">
      <path d="m102 138h38c1.1 0 2 0.88 2 2v13c0 1.1-0.88 2-2 2h-38c-1.1 0-2-0.88-2-2v-13c0-1.1 0.88-2 2-2zm38 0.44h-38c-0.84 0-1.5 0.68-1.5 1.5v13c0 0.84 0.68 1.5 1.5 1.5h38c0.84 0 1.5-0.68 1.5-1.5v-13c0-0.84-0.68-1.5-1.5-1.5z" fill="#555"/>
    </g>
    <g clip-path="url(#n)">
      <g clip-path="url(#m)">
        <path d="m102 138h38c1.1 0 2 0.88 2 2v13c0 1.1-0.88 2-2 2h-38c-1.1 0-2-0.88-2-2v-13c0-1.1 0.88-2 2-2zm38 0.44h-38c-0.84 0-1.5 0.68-1.5 1.5v13c0 0.84 0.68 1.5 1.5 1.5h38c0.84 0 1.5-0.68 1.5-1.5v-13c0-0.84-0.68-1.5-1.5-1.5z" fill="#808080"/>
      </g>
    </g>
    <g clip-path="url(#l)">
      <g clip-path="url(#k)">
        <path d="m102 138h38c1.1 0 2 0.88 2 2v13c0 1.1-0.88 2-2 2h-38c-1.1 0-2-0.88-2-2v-13c0-1.1 0.88-2 2-2zm38 0.44h-38c-0.84 0-1.5 0.68-1.5 1.5v13c0 0.84 0.68 1.5 1.5 1.5h38c0.84 0 1.5-0.68 1.5-1.5v-13c0-0.84-0.68-1.5-1.5-1.5z" fill="#555"/>
      </g>
    </g>
    <g clip-path="url(#j)">
      <path d="m102 138h38c1.1 0 2 0.88 2 2v13c0 1.1-0.88 2-2 2h-38c-1.1 0-2-0.88-2-2v-13c0-1.1 0.88-2 2-2zm38 0.44h-38c-0.84 0-1.5 0.68-1.5 1.5v13c0 0.84 0.68 1.5 1.5 1.5h38c0.84 0 1.5-0.68 1.5-1.5v-13c0-0.84-0.68-1.5-1.5-1.5z" fill="#808080"/>
    </g>
    <g clip-path="url(#i)">
      <path d="m102 138h38c1.1 0 2 0.88 2 2v13c0 1.1-0.88 2-2 2h-38c-1.1 0-2-0.88-2-2v-13c0-1.1 0.88-2 2-2zm38 0.44h-38c-0.84 0-1.5 0.68-1.5 1.5v13c0 0.84 0.68 1.5 1.5 1.5h38c0.84 0 1.5-0.68 1.5-1.5v-13c0-0.84-0.68-1.5-1.5-1.5z" fill="#555"/>
    </g>
    <g clip-path="url(#h)">
      <path d="m102 138h38c1.1 0 2 0.88 2 2v13c0 1.1-0.88 2-2 2h-38c-1.1 0-2-0.88-2-2v-13c0-1.1 0.88-2 2-2zm38 0.44h-38c-0.84 0-1.5 0.68-1.5 1.5v13c0 0.84 0.68 1.5 1.5 1.5h38c0.84 0 1.5-0.68 1.5-1.5v-13c0-0.84-0.68-1.5-1.5-1.5z" fill="#555"/>
    </g>
    <g clip-path="url(#g)">
      <path d="m102 138h38c1.1 0 2 0.88 2 2v13c0 1.1-0.88 2-2 2h-38c-1.1 0-2-0.88-2-2v-13c0-1.1 0.88-2 2-2zm38 0.44h-38c-0.84 0-1.5 0.68-1.5 1.5v13c0 0.84 0.68 1.5 1.5 1.5h38c0.84 0 1.5-0.68 1.5-1.5v-13c0-0.84-0.68-1.5-1.5-1.5z" fill="#808080"/>
    </g>
    <path d="m104 151h0.44" fill="none" stroke="#551a8b" stroke-miterlimit="10" stroke-width=".44"/>
    <path d="m109 151h30" fill="none" stroke="#551a8b" stroke-miterlimit="10" stroke-width=".44"/>
    <text transform="translate(104 149)" fill="#551a8b" font-family="Inter" font-size="9.1px"><tspan x="0 5.5632148 11.007675 13.57461 19.23831 24.381315 29.478645" y="0">go back</tspan></text>
    <text transform="translate(100 173)" fill="#000000" font-family="Inter" font-size="9.1px" font-weight="bold"><tspan x="0 3.5443799 8.84268 14.625135" y="0">tag:</tspan></text>
    <g clip-path="url(#f)">
      <path d="m103 180h301c1.3 0 2.4 1.1 2.4 2.4v9.6c0 1.3-1.1 2.4-2.4 2.4h-301c-1.3 0-2.4-1.1-2.4-2.4v-9.6c0-1.3 1.1-2.4 2.4-2.4z" fill="#e9e9ed" stroke="#8f8f9d" stroke-miterlimit="10" stroke-width=".44"/>
      <text transform="translate(104 191)" fill="#000000" font-family="Inter" font-size="9.1px"><tspan x="0 4.2020998 8.4041996 12.6063 16.808399 21.0105 25.240005 29.442104 33.644203" y="0">---------</tspan></text>
      <path d="m397 187 2.3 2.6h0.65l2.3-2.6v-0.65h-0.65l-2 2.3-2-2.3h-0.65"/>
    </g>
    <g fill="#000000" font-family="Inter" font-size="9.1px">
      <text transform="translate(100 217)" font-weight="bold"><tspan x="0 5.800725 11.25432 17.027639 20.681641 26.38188" y="0">depth:</tspan></text>
      <text transform="translate(100 233)"><tspan x="0 2.164995 7.481565 12.44187 17.33823 22.6548 25.221735 30.538305 38.47662 44.039837 47.355839 52.434898 55.001835 58.071194 63.515656 66.913872 69.480812 74.824783 80.269241 82.836182 88.499878 93.816452 99.379662 102.78702 108.17667" y="0">leave empty for no depth.</tspan></text>
    </g>
    <g clip-path="url(#e)">
      <path d="m101 240h304c0.6 0 1.1 0.49 1.1 1.1v12c0 0.6-0.48 1.1-1.1 1.1h-304c-0.6 0-1.1-0.49-1.1-1.1v-12c0-0.6 0.49-1.1 1.1-1.1z" fill="#fff" stroke="#8f8f9d" stroke-miterlimit="10" stroke-width=".44"/>
      <text transform="translate(103 250)" fill="#000000" font-family="Inter" font-size="9.1px"><tspan x="0" y="0">0</tspan></text>
    </g>
    <g clip-path="url(#d)">
      <path d="m392 241h12v6.1h-12z" fill="#e9e9ed"/>
      <path d="m396 245 2-2h0.68l2 2v0.68h-0.68l-1.7-1.7-1.7 1.7h-0.68" fill="#8f8f9d"/>
    </g>
    <g clip-path="url(#c)">
      <path d="m392 247h12v6.1h-12z" fill="#e9e9ed"/>
      <path d="m396 249 2 2h0.68l2-2v-0.68h-0.68l-1.7 1.7-1.7-1.7h-0.68" fill="#8f8f9d"/>
    </g>
    <g fill="#000000" font-family="Inter" font-size="9.1px">
      <text transform="translate(100 277)" font-weight="bold"><tspan x="0 5.3622451 10.4139 15.776145 18.260864 23.933701 29.734425 35.188019 37.298206 40.815182 43.2999 45.784618 49.265057 54.718651 58.445728 63.570465" y="0">exclude filters:</tspan></text>
      <text transform="translate(100 292)"><tspan x="0 6.7599001 12.20436 14.369355 20.033054 22.599991 28.263691 33.534584 40.952206 46.296181 48.863113 52.334415 58.975559 64.420021 69.763992 73.080002 76.322922 81.767387 83.932381 86.490181 89.038841 91.605782 97.05024 100.44846 103.0154 106.48669 113.12784 118.5723 126.51061 134.44893 139.59193 144.93591 150.59961 154.07091 156.63785 162.08231 167.42628 169.99321 175.13622 177.70316 185.82417 190.96718 196.0645 198.61317 201.1801 204.45044 209.8949 212.46182 217.2303 222.54688 224.71187 230.02844 235.12576 238.44177 240.98129 248.91962 254.36407 257.60699 262.92358 265.49051 268.89786 274.28751 279.43051 284.77448 287.34143 292.78589 298.12985 303.44644" y="0">Hold down “Control”, or “Command” on a Mac, to select more than one.</tspan></text>
    </g>
    <g clip-path="url(#b)">
      <path d="m101 299h304c0.6 0 1.1 0.49 1.1 1.1v45c0 0.6-0.48 1.1-1.1 1.1h-304c-0.6 0-1.1-0.49-1.1-1.1v-45c0-0.6 0.49-1.1 1.1-1.1z" fill="#fff" stroke="#8f8f9d" stroke-miterlimit="10" stroke-width=".44"/>
    </g>
    <g clip-path="url(#a)">
      <path d="m380 351h24c1.3 0 2.4 1.1 2.4 2.4v9.2c0 1.3-1.1 2.4-2.4 2.4h-24c-1.3 0-2.4-1.1-2.4-2.4v-9.2c0-1.3 1.1-2.4 2.4-2.4z" fill="#e9e9ed" stroke="#8f8f9d" stroke-miterlimit="10" stroke-width=".44"/>
      <text transform="translate(381 362)" fill="#000000" font-family="Inter" font-size="9.1px"><tspan x="0 5.818995 10.7793 15.684795" y="0">Save</tspan></text>
    </g>
  </g>
</svg>
